<?xml version="1.0" encoding="utf-8"?>
<!-- Generator: Adobe Illustrator 22.0.0, SVG Export Plug-In . SVG Version: 6.00 Build 0)  -->
<svg version="1.1" id="Capa_1" xmlns="http://www.w3.org/2000/svg" xmlns:xlink="http://www.w3.org/1999/xlink" x="0px" y="0px"
	 viewBox="0 0 423.4 264.9" style="enable-background:new 0 0 423.4 264.9;" xml:space="preserve">
<style type="text/css">
	.st0{fill:#FFFFFF;}
</style>
<g>
	<g>
		<path class="st0" d="M98.6,183c10.1,0,17,6.5,17,16s-7.1,16-17.4,16H84.8v-32.1h13.8V183z M93,208.6h5.8c5,0,8.6-3.8,8.6-9.5
			c0-5.7-3.8-9.6-8.9-9.6H93V208.6z"/>
		<path class="st0" d="M161.4,198.9v12.5c-3.4,2.4-8.8,4.2-13.3,4.2c-9.8,0-17.1-7.1-17.1-16.4s7.6-16.3,17.7-16.3
			c4.8,0,9.8,1.8,13.1,4.8l-4.6,5.5c-2.3-2.2-5.6-3.5-8.6-3.5c-5.3,0-9.3,4.1-9.3,9.5c0,5.5,4.1,9.6,9.4,9.6c1.6,0,3.8-0.6,5.7-1.6
			v-8.3H161.4z"/>
		<path class="st0" d="M208.5,215.1l-6-22.2l-6,22.2h-8.4L177.6,183h8.7l6.3,23.6l6.1-23.6h8l6.3,23.6l6.2-23.6h8.3l-10.6,32.1
			H208.5z"/>
		<path class="st0" d="M273,201.6c0,8.5-5.6,13.8-14.6,13.8s-14.8-5.4-14.8-13.8V183h8.2v18.6c0,4.4,2.8,7,6.7,7
			c3.8,0,6.5-2.7,6.5-7V183h8.1v18.6H273z"/>
		<path class="st0" d="M322.7,215.1h-9.8L306,205l-6.9,10.2h-9.5l11.5-16.4l-10.7-15.7h9.5l6.2,9.3l6.2-9.3h9.6l-10.6,15.3
			L322.7,215.1z"/>
	</g>
	<g>
		<g>
			<path class="st0" d="M49.8,122.8c0,2.4,0,4.8,0,7.3c0,12.8-6.6,20.3-19.7,22.8c-3.5,0.7-7,1.4-10.5,2.1
				C6.5,157.6,0,152.2,0,138.2C0,111.2,0,84.1,0,57c0-14,6.6-21,19.7-20.9c3.5,0,7.1,0,10.6,0c13.1,0,19.7,6.5,19.7,19.3
				c0,4.3,0,8.5,0,12.8c-5.5,0.3-11,0.5-16.4,0.8c0-4,0-8,0-12c0-4.5-2.4-6.7-7.3-6.6c-1.1,0-2.2,0.1-3.3,0.1
				c-4.3,0.1-6.5,2.5-6.5,7.2c0,25.6-0.1,51.1-0.1,76.7c0,4.7,2.1,6.6,6.5,5.9c1.4-0.2,2.7-0.5,4.1-0.7c4.3-0.7,6.5-3.4,6.5-7.9
				c0-2.1,0-4.2,0-6.3C38.8,124.3,44.3,123.5,49.8,122.8z"/>
		</g>
		<g>
			<path class="st0" d="M81.5,144.5c-13.3,1.8-19.8-3.4-19.8-16c0.1-24.5,0.2-48.9,0.3-73.4C62.1,42.3,68.7,36,81.8,36
				c5.3,0,10.5,0,15.8,0c13.1,0,19.7,6,19.6,17.9c-0.1,22.9-0.2,45.9-0.3,68.8c0,11.8-6.7,18.3-20,19.9
				C91.8,143.1,86.6,143.9,81.5,144.5z M85.5,131c2.8-0.3,5.6-0.6,8.4-0.9c4.3-0.5,6.5-2.8,6.6-6.9c0.1-22.7,0.2-45.3,0.3-68
				c0-4.1-2.4-6.2-7.3-6.1c-2.6,0-5.1,0.1-7.7,0.1c-4.8,0.1-7.2,2.2-7.2,6.5c-0.1,23.3-0.2,46.6-0.3,69.8
				C78.1,129.6,80.6,131.5,85.5,131z"/>
		</g>
		<g>
			<path class="st0" d="M131.9,36c10.7,0,21.5,0,32.2,0c12.6,0,18.9,5.7,18.8,17.2c0,8.2,0,16.5,0,24.7c0,8.7-3.3,14.3-9.8,16.8
				c3.8,13.9,7.6,27.7,11.5,41.5c-5.2,0.1-10.5,0.3-15.7,0.6c-3.6-13.4-7.2-26.8-10.7-40.4c-3.3,0.1-6.7,0.2-10,0.4
				c0,13.7-0.1,27.4-0.1,41.1c-5.5,0.4-11,0.8-16.5,1.2C131.6,104.8,131.7,70.3,131.9,36z M148.2,85.1c3.6-0.1,7.2-0.2,10.8-0.3
				c4.9-0.1,7.4-2.6,7.4-7.5c0-7.3,0-14.5,0.1-21.8c0-4.9-2.4-7.3-7.4-7.3c-3.6,0-7.2,0.1-10.8,0.1
				C148.3,60.6,148.2,72.8,148.2,85.1z"/>
		</g>
		<g>
			<path class="st0" d="M215.8,135.8c-13.3,0-20-5.5-20-16.9c0-21.9,0-43.9,0.1-65.8c0-11.4,6.6-17.1,19.7-17.1c5.3,0,10.5,0,15.8,0
				c13.1,0,19.7,5.7,19.8,17.2c0.1,22.1,0.1,44.2,0.2,66.3c0,11.4-6.6,16.8-20,16.5C226.1,135.9,221,135.8,215.8,135.8z
				 M219.7,123.7c2.8,0,5.6,0.1,8.4,0.1c4.4,0.1,6.6-1.8,6.5-5.7c0-21.4-0.1-42.7-0.1-64.1c0-3.9-2.5-5.9-7.4-5.9
				c-2.6,0-5.1,0-7.7,0c-4.8,0-7.2,1.9-7.2,5.8c0,21.3,0,42.6,0,63.9C212.3,121.8,214.8,123.7,219.7,123.7z"/>
		</g>
		<g>
			<path class="st0" d="M300,86.2c-0.1-16.7-0.1-33.4-0.2-50.2c5.5,0,11,0,16.5,0c0.2,35.2,0.3,70.3,0.5,105.5
				c-5.5-0.6-11-1.1-16.5-1.7c0-6.9-0.1-13.8-0.1-20.7c-6-16.2-11.9-32.1-17.9-47.8c0.1,22.3,0.2,44.7,0.2,67
				c-5.5-0.4-11-0.8-16.5-1.1c-0.1-33.8-0.2-67.5-0.3-101.3c5.5,0,11,0,16.5,0C288.1,52.5,294,69.2,300,86.2z"/>
		</g>
		<g>
			<path class="st0" d="M332.2,143.2c-0.2-35.8-0.3-71.5-0.5-107.3c13.6,0,27.2,0,40.8,0c0,4.6,0,9.1,0.1,13.7
				c-8.1-0.2-16.2-0.3-24.3-0.5c0,11.1,0.1,22.2,0.1,33.2c7.2,0.4,14.4,0.9,21.6,1.4c0,4.6,0,9.1,0.1,13.7
				c-7.2-0.6-14.4-1.3-21.6-1.8c0.1,12.1,0.1,24.3,0.2,36.4c8.1,1,16.2,2.1,24.3,3.3c0,4.6,0,9.1,0.1,13.7
				C359.4,147,345.8,145,332.2,143.2z"/>
		</g>
		<g>
			<path class="st0" d="M423.4,159.1c-12.9-2.9-25.8-5.5-38.8-7.8c-0.1-38.4-0.2-76.9-0.4-115.3c5.5,0,11,0,16.5,0
				c0.1,34.7,0.1,69.4,0.2,104.1c7.5,1.3,15,2.7,22.4,4.2C423.4,149.1,423.4,154.1,423.4,159.1z"/>
		</g>
	</g>
	<g>
		<g>
			<path class="st0" d="M351,229H67.3v-61.3H351V229z M69.8,226.4h278.7v-56.3H69.8V226.4z"/>
		</g>
	</g>
</g>
</svg>
