<?xml version="1.0" encoding="utf-8"?>
<!-- Generator: Adobe Illustrator 22.0.0, SVG Export Plug-In . SVG Version: 6.00 Build 0)  -->
<svg version="1.1" id="Capa_1" xmlns="http://www.w3.org/2000/svg" xmlns:xlink="http://www.w3.org/1999/xlink" x="0px" y="0px"
	 viewBox="0 0 423.4 264.9" style="enable-background:new 0 0 423.4 264.9;" xml:space="preserve">
<style type="text/css">
	.st0{fill:#FFFFFF;}
</style>
<g>
	<g>
		<path class="st0" d="M98.6,218.9c10.1,0,17,6.5,17,16c0,9.5-7.1,16-17.4,16H84.8v-32.1H98.6z M93,244.5h5.8c5,0,8.6-3.8,8.6-9.5
			c0-5.7-3.8-9.6-8.9-9.6H93V244.5z"/>
		<path class="st0" d="M161.4,234.7v12.5c-3.4,2.4-8.8,4.2-13.3,4.2c-9.8,0-17.1-7.1-17.1-16.4c0-9.3,7.6-16.3,17.7-16.3
			c4.8,0,9.8,1.8,13.1,4.8l-4.6,5.5c-2.3-2.2-5.6-3.5-8.6-3.5c-5.3,0-9.3,4.1-9.3,9.5c0,5.5,4.1,9.6,9.4,9.6c1.6,0,3.8-0.6,5.7-1.6
			v-8.3H161.4z"/>
		<path class="st0" d="M208.5,251l-6-22.2l-6,22.2h-8.4l-10.5-32.1h8.7l6.3,23.6l6.1-23.6h8l6.3,23.6l6.2-23.6h8.3L216.9,251H208.5z
			"/>
		<path class="st0" d="M273,237.5c0,8.5-5.6,13.8-14.6,13.8c-9,0-14.8-5.4-14.8-13.8v-18.6h8.2v18.6c0,4.4,2.8,7,6.7,7
			c3.8,0,6.5-2.7,6.5-7v-18.6h8.1V237.5z"/>
		<path class="st0" d="M322.7,251h-9.8l-6.9-10.2l-6.9,10.2h-9.5l11.5-16.4l-10.7-15.7h9.5l6.2,9.3l6.2-9.3h9.6l-10.6,15.3
			L322.7,251z"/>
	</g>
	<g>
		<g>
			<path class="st0" d="M49.8,158.7c0,2.4,0,4.8,0,7.3c0,12.8-6.6,20.3-19.7,22.8c-3.5,0.7-7,1.4-10.5,2.1
				C6.5,193.5,0,188.1,0,174.1c0-27.1,0-54.2,0-81.3c0-14,6.6-21,19.7-20.9c3.5,0,7.1,0,10.6,0c13.1,0,19.7,6.5,19.7,19.3
				c0,4.3,0,8.5,0,12.8c-5.5,0.3-11,0.5-16.4,0.8c0-4,0-8,0-12c0-4.5-2.4-6.7-7.3-6.6c-1.1,0-2.2,0.1-3.3,0.1
				c-4.3,0.1-6.5,2.5-6.5,7.2c0,25.6-0.1,51.1-0.1,76.7c0,4.7,2.1,6.6,6.5,5.9c1.4-0.2,2.7-0.5,4.1-0.7c4.3-0.7,6.5-3.4,6.5-7.9
				c0-2.1,0-4.2,0-6.3C38.8,160.1,44.3,159.4,49.8,158.7z"/>
		</g>
		<g>
			<path class="st0" d="M81.5,180.4c-13.3,1.8-19.8-3.4-19.8-16c0.1-24.5,0.2-48.9,0.3-73.4c0.1-12.8,6.7-19.1,19.8-19.1
				c5.3,0,10.5,0,15.8,0c13.1,0,19.7,6,19.6,17.9c-0.1,22.9-0.2,45.9-0.3,68.8c0,11.8-6.7,18.3-20,19.9
				C91.8,179,86.6,179.7,81.5,180.4z M85.5,166.8c2.8-0.3,5.6-0.6,8.4-0.9c4.3-0.5,6.5-2.8,6.6-6.9c0.1-22.7,0.2-45.3,0.3-68
				c0-4.1-2.4-6.2-7.3-6.1c-2.6,0-5.1,0.1-7.7,0.1c-4.8,0.1-7.2,2.2-7.2,6.5c-0.1,23.3-0.2,46.6-0.3,69.8
				C78.1,165.5,80.6,167.3,85.5,166.8z"/>
		</g>
		<g>
			<path class="st0" d="M131.9,71.8c10.7,0,21.5,0,32.2,0c12.6,0,18.9,5.7,18.8,17.2c0,8.2,0,16.5,0,24.7c0,8.7-3.3,14.3-9.8,16.8
				c3.8,13.9,7.6,27.7,11.5,41.5c-5.2,0.1-10.5,0.3-15.7,0.6c-3.6-13.4-7.2-26.8-10.7-40.4c-3.3,0.1-6.7,0.2-10,0.4
				c0,13.7-0.1,27.4-0.1,41.1c-5.5,0.4-11,0.8-16.5,1.2C131.6,140.6,131.7,106.2,131.9,71.8z M148.2,120.9c3.6-0.1,7.2-0.2,10.8-0.3
				c4.9-0.1,7.4-2.6,7.4-7.5c0-7.3,0-14.5,0.1-21.8c0-4.9-2.4-7.3-7.4-7.3c-3.6,0-7.2,0.1-10.8,0.1
				C148.3,96.4,148.2,108.7,148.2,120.9z"/>
		</g>
		<g>
			<path class="st0" d="M215.8,171.6c-13.3,0-20-5.5-20-16.9c0-21.9,0-43.9,0.1-65.8c0-11.4,6.6-17.1,19.7-17.1c5.3,0,10.5,0,15.8,0
				c13.1,0,19.7,5.7,19.8,17.2c0.1,22.1,0.1,44.2,0.2,66.3c0,11.4-6.6,16.8-20,16.5C226.1,171.7,221,171.6,215.8,171.6z
				 M219.7,159.5c2.8,0,5.6,0.1,8.4,0.1c4.4,0.1,6.6-1.8,6.5-5.7c0-21.4-0.1-42.7-0.1-64.1c0-3.9-2.5-5.9-7.4-5.9
				c-2.6,0-5.1,0-7.7,0c-4.8,0-7.2,1.9-7.2,5.8c0,21.3,0,42.6,0,63.9C212.3,157.6,214.8,159.5,219.7,159.5z"/>
		</g>
		<g>
			<path class="st0" d="M300,122c-0.1-16.7-0.1-33.4-0.2-50.2c5.5,0,11,0,16.5,0c0.2,35.2,0.3,70.3,0.5,105.5
				c-5.5-0.6-11-1.1-16.5-1.7c0-6.9-0.1-13.8-0.1-20.7c-6-16.2-11.9-32.1-17.9-47.8c0.1,22.3,0.2,44.7,0.2,67
				c-5.5-0.4-11-0.8-16.5-1.1c-0.1-33.8-0.2-67.5-0.3-101.3c5.5,0,11,0,16.5,0C288.1,88.3,294,105,300,122z"/>
		</g>
		<g>
			<path class="st0" d="M332.2,179.1c-0.2-35.8-0.3-71.5-0.5-107.3c13.6,0,27.2,0,40.8,0c0,4.6,0,9.1,0.1,13.7
				c-8.1-0.2-16.2-0.3-24.3-0.5c0,11.1,0.1,22.2,0.1,33.2c7.2,0.4,14.4,0.9,21.6,1.4c0,4.6,0,9.1,0.1,13.7
				c-7.2-0.6-14.4-1.3-21.6-1.8c0.1,12.1,0.1,24.3,0.2,36.4c8.1,1,16.2,2.1,24.3,3.3c0,4.6,0,9.1,0.1,13.7
				C359.4,182.8,345.8,180.8,332.2,179.1z"/>
		</g>
		<g>
			<path class="st0" d="M423.4,195c-12.9-2.9-25.8-5.5-38.8-7.8c-0.1-38.4-0.2-76.9-0.4-115.3c5.5,0,11,0,16.5,0
				c0.1,34.7,0.1,69.4,0.2,104.1c7.5,1.3,15,2.7,22.4,4.2C423.4,185,423.4,190,423.4,195z"/>
		</g>
	</g>
	<g>
		<g>
			<path class="st0" d="M351,264.9H67.3v-61.3H351V264.9z M69.8,262.3h278.7V206H69.8V262.3z"/>
		</g>
	</g>
	<g>
		<g>
			<path class="st0" d="M209.1,52l-39-26l39-26l39,26L209.1,52z M171.7,26l37.5,25l37.5-25L209.1,1L171.7,26z"/>
		</g>
	</g>
	<g>
		<g>
			<path class="st0" d="M208,15.8l-1.8,2.1c-0.6-0.8-1.4-1.3-2.1-1.3c-1.1,0-2,0.9-2,2.2c0,1.3,0.8,2.2,2,2.2c0.7,0,1.5-0.4,2.1-1.1
				l1.8,1.9c-1.1,1.1-2.7,1.9-4.1,1.9c-2.9,0-5-2.1-5-4.9c0-2.8,2.2-4.8,5.1-4.8C205.5,14.1,207,14.8,208,15.8z"/>
		</g>
		<g>
			<path class="st0" d="M214.3,14.2c3.1,0,5.1,1.8,5.1,4.7s-2.1,4.7-5.3,4.7h-4.1v-9.4H214.3z M213.2,21.2h1.2
				c1.1,0,1.9-0.9,1.9-2.3c0-1.4-0.8-2.3-2-2.3h-1V21.2z"/>
		</g>
		<g>
			<path class="st0" d="M206.4,35.8v-5.2l-1.6,4.3h-2l-1.6-4.3v5.2h-2.7v-9.4h3.3l2.1,4.9l2.1-4.9h3.3v9.4H206.4z"/>
		</g>
		<g>
			<g>
				<path class="st0" d="M220,35.8h-3.7l-1.6-2.4l-1.6,2.4h-3.7l3.3-4.8l-3.1-4.6h3.6l1.4,2.2l1.4-2.2h3.7l-3.1,4.5L220,35.8z"/>
			</g>
		</g>
	</g>
	<g>
		<g>
			<path class="st0" d="M209.2,49l-34.5-23l34.5-23l34.6,23L209.2,49z M176,26l33.2,22.1L242.3,26L209.2,3.9L176,26z"/>
		</g>
	</g>
	<path class="st0" d="M136,38.7v-1.5l1.9-1.9c4.7-4.5,6.8-6.8,6.8-9.6c0-1.9-0.9-3.6-3.6-3.6c-1.7,0-3,0.8-3.9,1.6l-0.8-1.7
		c1.3-1.1,3.1-1.9,5.2-1.9c3.9,0,5.6,2.7,5.6,5.3c0,3.4-2.5,6.1-6.3,9.8l-1.5,1.4v0.1h8.2v2.1H136z"/>
	<path class="st0" d="M162.6,29.4c0,6.2-2.3,9.7-6.4,9.7c-3.6,0-6-3.4-6.1-9.4c0-6.2,2.7-9.5,6.4-9.5
		C160.4,20.1,162.6,23.5,162.6,29.4z M152.7,29.7c0,4.8,1.5,7.5,3.7,7.5c2.5,0,3.8-3,3.8-7.6c0-4.5-1.2-7.5-3.7-7.5
		C154.3,22,152.7,24.7,152.7,29.7z"/>
	<path class="st0" d="M258.4,22.7L258.4,22.7l-3.2,1.7l-0.5-1.9l4-2.1h2.1v18.3h-2.4V22.7z"/>
	<path class="st0" d="M279.3,20.4V22l-8,16.7h-2.6l8-16.2v-0.1h-9v-2.1H279.3z"/>
</g>
</svg>
